# xmcd
#
# Track frame offsets: 
#        150
#        3815
#        43300
#        73086
#        104246
#        148163
#        160558
#        195619
#        222947
#        276594
#        318036
#
# Disc length: 4655 seconds
#
# Revision: 0
# Processed by: cddbd v1.5.2PL0 Copyright (c) Steve Scherf et al.
# Submitted via: ExactAudioCopyFreeDBPlugin 1.0
#
DISCID=a6122d0b
DTITLE=Eric Gales - A Night on the Sunset Strip
DYEAR=2016
DGENRE=Blues
TTITLE0=Intro
TTITLE1=Make It There
TTITLE2=The Change In Me
TTITLE3=Block The Sun
TTITLE4=The Open Road
TTITLE5=Sea Of Bad Blood
TTITLE6=Bass and Drum Solos - Guitar Solo
TTITLE7=Swamp
TTITLE8=1019
TTITLE9=Good For Sumthin
TTITLE10=Miss You
EXTD=
EXTT0=
EXTT1=
EXTT2=
EXTT3=
EXTT4=
EXTT5=
EXTT6=
EXTT7=
EXTT8=
EXTT9=
EXTT10=
PLAYORDER=
